# Blender 3.4.0
# www.blender.org
mtllib Slot Placeholder.mtl
o Cube
v 1.000000 1.812219 -1.000000
v 1.000000 -0.187781 -1.000000
v 1.000000 1.812219 1.000000
v 1.000000 -0.187781 1.000000
v -1.000000 1.812219 -1.000000
v -1.000000 -0.187781 -1.000000
v -1.000000 1.812219 1.000000
v -1.000000 -0.187781 1.000000
v 1.000000 3.634914 1.000000
v -1.000000 3.634914 1.000000
v 1.000000 3.634914 -1.000000
v -1.000000 3.634914 -1.000000
v 0.546360 1.812219 -1.000000
v 0.546360 1.812219 1.000000
v 0.546360 3.634914 -1.000000
v 0.546360 3.634914 1.000000
v 1.000000 1.812219 -0.870166
v 1.000000 3.634914 -0.870166
v 0.546360 1.812219 -0.870166
v 0.546360 3.634914 -0.870166
v 1.000000 1.812219 0.891695
v -1.000000 1.812219 0.891695
v 1.000000 3.634914 0.891695
v -1.000000 3.634914 0.891695
v 1.000000 3.541865 -1.000000
v 1.000000 3.541865 1.000000
v 0.546360 3.541865 -1.000000
v 0.546360 3.541865 1.000000
v 1.280341 1.812219 -1.000000
v 1.280341 -0.187781 -1.000000
v 1.280341 1.812219 1.000000
v 1.280341 -0.187781 1.000000
v 0.546360 1.812219 -1.000000
v 0.546360 1.812219 1.000000
v 0.546360 3.634914 -1.000000
v 0.546360 3.634914 1.000000
v 1.000000 1.812219 1.004628
v -1.000000 1.812219 1.004628
v 1.000000 3.634914 1.004628
v -1.000000 3.634914 1.004628
vn -1.0000 -0.0000 -0.0000
vn -0.0000 -0.0000 1.0000
vn -0.0000 -1.0000 -0.0000
vn -0.0000 -0.0000 -1.0000
vn -0.0000 1.0000 -0.0000
vn 1.0000 -0.0000 -0.0000
vt 0.668049 0.958563
vt 0.941486 0.919501
vt 0.906330 0.821844
vt 0.906330 0.821844
vt 0.668049 0.958563
vt 0.941486 0.919501
vt 0.929767 0.821844
vt 0.906330 0.821844
vt 0.929767 0.821844
vt 0.906330 0.821844
vt 0.906330 0.821844
vt 0.906330 0.821844
vt 0.929767 0.821844
vt 0.929767 0.821844
vt 0.906330 0.821844
vt 0.929767 0.821844
vt 0.906330 0.821844
vt 0.906330 0.821844
vt 0.906330 0.821844
vt 0.906330 0.821844
vt 0.668049 0.958563
vt 0.906330 0.821844
vt 0.668049 0.958563
vt 0.906330 0.821844
vt 0.929767 0.821844
vt 0.906330 0.821844
vt 0.929767 0.821844
vt 0.906330 0.821844
vt 0.906330 0.821844
vt 0.906330 0.821844
vt 0.906330 0.821844
vt 0.906330 0.821844
vt 0.929767 0.821844
vt 0.906330 0.821844
vt 0.929767 0.821844
vt 0.929767 0.821844
vt 0.906330 0.821844
vt 0.906330 0.821844
vt 0.906330 0.821844
vt 0.929767 0.821844
vt 0.906330 0.821844
vt 0.906330 0.821844
vt 0.929767 0.821844
vt 0.906330 0.821844
vt 0.941486 0.919501
vt 0.906330 0.821844
vt 0.906330 0.821844
vt 0.906330 0.821844
vt 0.941486 0.919501
vt 0.929767 0.821844
vt 0.906330 0.821844
vt 0.929767 0.821844
vt 0.918049 0.950751
vt 0.906330 0.821844
vt 0.918049 0.950751
vt 0.906330 0.821844
vt 0.929767 0.821844
vt 0.918049 0.950751
vt 0.906330 0.821844
vt 0.918049 0.950751
vt 0.929767 0.821844
vt 0.906330 0.821844
vt 0.929767 0.821844
vt 0.906330 0.821844
vt 0.929767 0.821844
vt 0.929767 0.821844
vt 0.906330 0.821844
vt 0.929767 0.821844
vt 0.906330 0.821844
s 0
usemtl Material
f 5/10/1 7/12/1 10/18/1 12/20/1
f 4/9/2 3/7/2 7/13/2 8/14/2
f 8/15/1 7/12/1 5/10/1 6/11/1
f 6/11/3 2/4/3 4/8/3 8/15/3
f 4/8/3 2/4/3 30/47/3 32/51/3
f 6/11/4 5/10/4 1/3/4 2/4/4
f 11/19/5 12/20/5 10/18/5 9/17/5
f 9/16/4 3/7/4 14/25/4 16/27/4
f 1/3/4 5/10/4 12/20/4 11/19/4
f 10/18/6 7/12/6 22/34/6 24/38/6
f 13/22/5 15/26/5 35/59/5 33/54/5
f 9/16/2 16/27/2 28/43/2 26/40/2
f 3/5/5 1/1/5 13/21/5 14/23/5
f 13/22/3 1/3/3 17/29/3 19/31/3
f 17/29/2 18/30/2 20/32/2 19/31/2
f 11/19/5 15/26/5 20/32/5 18/30/5
f 15/26/1 13/22/1 19/31/1 20/32/1
f 1/3/6 11/19/6 18/30/6 17/29/6
f 24/38/1 22/34/1 38/64/1 40/69/1
f 9/17/3 10/18/3 24/38/3 23/37/3
f 3/7/1 9/16/1 23/36/1 21/33/1
f 7/13/5 3/7/5 21/33/5 22/35/5
f 25/39/3 26/41/3 28/44/3 27/42/3
f 16/28/1 15/26/1 27/42/1 28/44/1
f 15/26/4 11/19/4 25/39/4 27/42/4
f 11/19/6 9/17/6 26/41/6 25/39/6
f 30/47/6 29/46/6 31/48/6 32/51/6
f 1/2/5 3/6/5 31/49/5 29/45/5
f 3/7/2 4/9/2 32/52/2 31/50/2
f 2/4/4 1/3/4 29/46/4 30/47/4
f 34/55/6 33/53/6 35/58/6 36/60/6
f 14/24/5 13/22/5 33/54/5 34/56/5
f 16/27/5 14/25/5 34/57/5 36/61/5
f 15/26/5 16/28/5 36/62/5 35/59/5
f 38/65/2 37/63/2 39/66/2 40/68/2
f 22/35/3 21/33/3 37/63/3 38/65/3
f 21/33/6 23/36/6 39/66/6 37/63/6
f 23/37/5 24/38/5 40/69/5 39/67/5
